{"title":"Young Sherlock Holmes 1985 Dual Audio [Hindi-Eng]~Abinav4u~ {HKR","uid":7284068,"size":1665375084,"categoryP":"video","categoryS":"movies","magnet":"?xt=urn:btih:144a1dd51c702f82e5aeedaaf2cf47bf4c67923a&amp;dn=Young+Sherlock+Holmes+1985+Dual+Audio+%5BHindi-Eng%5D%7EAbinav4u%7E+%7BHKR&amp;tr=udp%3A%2F%2Ftracker.openbittorrent.com%3A80&amp;tr=udp%3A%2F%2Fopen.demonii.com%3A1337&amp;tr=udp%3A%2F%2Ftracker.coppersurfer.tk%3A6969&amp;tr=udp%3A%2F%2Fexodus.desync.com%3A6969","seeders":0,"leechers":1,"uploader":"Abhinav4u","files":4,"time":1337526617,"description":"Info:-\nFormat : Matroska\nFile size : 1.54 GiB\nDuration : 1h 44mn\nOverall bit rate : 2 114 Kbps\nMovie name : Young Sherlock Holmes 1985 Dual Audio [Hindi-Eng]~Abinav4u~ {HKRG}\n\n\nID : 1\nFormat/Info : Advanced Video Codec\nCodec ID : V_MPEG4/ISO/AVC\nDuration : 1h 44mn\nBit rate : 1 423 Kbps\nWidth : 720 pixels\nHeight : 416 pixels\nDisplay aspect ratio : 16:9\nFrame rate : 25.000 fps\nBits/(Pixel*Frame) : 0.190\nStream size : 1.02 GiB (66%)\nTitle : Ripper::~Abhinav4u~ Team {HKRG}\nLanguage : English\n\nAudio #1\nID : 2\nFormat/Info : Audio Coding 3\nCodec ID : A_AC3\nDuration : 1h 44mn\nBit rate mode : Constant\nBit rate : 448 Kbps\nChannel(s) : 6 channels\nChannel positions : Front: L C R, Side: L R, LFE\nSampling rate : 48.0 KHz\nStream size : 335 MiB (21%)\nTitle : 5.1 AC3 ~Abhinav4u~\nLanguage : English\n\nAudio #2\nID : 3\nFormat : MPEG Audio\nMode : Joint stereo\nCodec ID/Hint : MP3\nDuration : 1h 44mn\nBit rate mode : Constant\nBit rate : 224 Kbps\nChannel(s) : 2 channels\nSampling rate : 48.0 KHz\nStream size : 167 MiB (11%)\nTitle : 2CH ORG ~Abhinav4u~\nLanguage : Hindi\n\nSample Included..\nEnjoy The movie..","torrent":{"xt":"urn:btih:144a1dd51c702f82e5aeedaaf2cf47bf4c67923a","amp;dn":"Young+Sherlock+Holmes+1985+Dual+Audio+%5BHindi-Eng%5D%7EAbinav4u%7E+%7BHKR","amp;tr":["udp%3A%2F%2Ftracker.openbittorrent.com%3A80","udp%3A%2F%2Fopen.demonii.com%3A1337","udp%3A%2F%2Ftracker.coppersurfer.tk%3A6969","udp%3A%2F%2Fexodus.desync.com%3A6969"],"infoHash":"144a1dd51c702f82e5aeedaaf2cf47bf4c67923a","infoHashBuffer":{"type":"Buffer","data":[20,74,29,213,28,112,47,130,229,174,237,170,242,207,71,191,76,103,146,58]},"announce":[],"urlList":[]}}